<?xml version="1.0" encoding="UTF-8"?>
<svg id="Calque_1" xmlns="http://www.w3.org/2000/svg" xmlns:xlink="http://www.w3.org/1999/xlink" viewBox="0 0 1170 582">
  <defs>
    <style>
      .cls-1 {
        fill: none;
      }

      .cls-2 {
        fill: #ffcc5a;
      }

      .cls-3 {
        isolation: isolate;
      }

      .cls-4 {
        fill: #fff;
      }

      .cls-5 {
        clip-path: url(#clippath);
      }
    </style>
    <clipPath id="clippath">
      <rect class="cls-1" x="74.13" y="72.11" width="1027.5" height="279.51"/>
    </clipPath>
  </defs>
  <path id="Tracé_146" class="cls-2" d="M689.37,397.72h387.57c3.45.04,6.73.78,9.71,2.08,11.08,4.84,16.59,17.43,13.38,29.09l-15.33,55.7c-3.76,14.37-11.06,25.3-24.7,25.3h-387.56c-1.29-.02-2.58-.14-3.85-.36-14.26-2.49-22.99-17.15-19.15-31.11l15.25-55.41c6.13-19.7,10.89-25.12,24.69-25.3Z"/>
  <g id="Organisme_de_formation" class="cls-3">
    <g class="cls-3">
      <path class="cls-4" d="M81.99,478.22c-4.2-2.39-7.52-5.72-9.96-10-2.44-4.28-3.66-9.1-3.66-14.45s1.22-10.17,3.66-14.45,5.76-7.61,9.96-10c4.2-2.39,8.85-3.58,13.94-3.58s9.82,1.2,14.02,3.58c4.2,2.39,7.51,5.71,9.92,9.96,2.41,4.25,3.62,9.08,3.62,14.49s-1.21,10.24-3.62,14.49c-2.42,4.25-5.72,7.57-9.92,9.96-4.2,2.39-8.87,3.58-14.02,3.58s-9.74-1.19-13.94-3.58ZM106.29,472.91c3.07-1.78,5.49-4.33,7.25-7.64,1.76-3.31,2.64-7.14,2.64-11.5s-.88-8.26-2.64-11.54c-1.76-3.28-4.16-5.82-7.21-7.6-3.05-1.78-6.51-2.68-10.4-2.68s-7.35.89-10.4,2.68c-3.05,1.78-5.45,4.32-7.21,7.6-1.76,3.28-2.64,7.13-2.64,11.54s.88,8.19,2.64,11.5c1.76,3.31,4.17,5.86,7.25,7.64,3.07,1.79,6.52,2.68,10.36,2.68s7.29-.89,10.36-2.68Z"/>
      <path class="cls-4" d="M147.16,439.36c2.33-1.37,5.18-2.05,8.54-2.05v7.4h-1.89c-8.03,0-12.05,4.36-12.05,13.07v23.47h-7.17v-43.16h7.17v7.01c1.26-2.47,3.06-4.38,5.4-5.75Z"/>
      <path class="cls-4" d="M193.23,439.83c2.81,1.63,4.9,3.68,6.26,6.14v-7.88h7.25v44.1c0,3.94-.84,7.44-2.52,10.51-1.68,3.07-4.08,5.47-7.21,7.21-3.13,1.73-6.76,2.6-10.91,2.6-5.67,0-10.4-1.34-14.18-4.02-3.78-2.68-6.01-6.33-6.69-10.95h7.09c.79,2.62,2.41,4.74,4.88,6.34,2.47,1.6,5.43,2.4,8.9,2.4,3.94,0,7.15-1.23,9.65-3.7,2.49-2.47,3.74-5.93,3.74-10.4v-9.06c-1.42,2.52-3.52,4.62-6.3,6.3-2.78,1.68-6.04,2.52-9.77,2.52s-7.31-.94-10.44-2.83c-3.12-1.89-5.58-4.54-7.36-7.95-1.79-3.41-2.68-7.3-2.68-11.66s.89-8.28,2.68-11.62c1.78-3.33,4.24-5.92,7.36-7.76,3.12-1.84,6.6-2.76,10.44-2.76s7,.81,9.81,2.44ZM197.52,451.09c-1.31-2.41-3.09-4.27-5.32-5.55-2.23-1.29-4.69-1.93-7.36-1.93s-5.12.63-7.32,1.89c-2.21,1.26-3.97,3.1-5.28,5.51-1.31,2.41-1.97,5.25-1.97,8.51s.66,6.18,1.97,8.62c1.31,2.44,3.07,4.31,5.28,5.59,2.2,1.29,4.65,1.93,7.32,1.93s5.13-.64,7.36-1.93c2.23-1.29,4-3.15,5.32-5.59,1.31-2.44,1.97-5.29,1.97-8.55s-.66-6.09-1.97-8.51Z"/>
      <path class="cls-4" d="M220.52,447.9c1.78-3.33,4.24-5.92,7.36-7.76,3.12-1.84,6.6-2.76,10.44-2.76s7.06.81,9.84,2.44c2.78,1.63,4.86,3.68,6.22,6.14v-7.88h7.25v43.16h-7.25v-8.03c-1.42,2.52-3.53,4.61-6.34,6.26-2.81,1.65-6.08,2.48-9.81,2.48s-7.3-.94-10.4-2.83c-3.1-1.89-5.54-4.54-7.32-7.95-1.79-3.41-2.68-7.3-2.68-11.66s.89-8.28,2.68-11.62ZM252.42,451.09c-1.31-2.41-3.09-4.27-5.32-5.55-2.23-1.29-4.69-1.93-7.36-1.93s-5.12.63-7.32,1.89c-2.21,1.26-3.97,3.1-5.28,5.51-1.31,2.41-1.97,5.25-1.97,8.51s.66,6.18,1.97,8.62c1.31,2.44,3.07,4.31,5.28,5.59,2.2,1.29,4.65,1.93,7.32,1.93s5.13-.64,7.36-1.93c2.23-1.29,4-3.15,5.32-5.59,1.31-2.44,1.97-5.29,1.97-8.55s-.66-6.09-1.97-8.51Z"/>
      <path class="cls-4" d="M309.2,442.07c3.26,3.18,4.88,7.76,4.88,13.74v25.44h-7.09v-24.41c0-4.3-1.08-7.6-3.23-9.88-2.15-2.28-5.09-3.43-8.82-3.43s-6.79,1.18-9.02,3.54c-2.23,2.36-3.35,5.8-3.35,10.32v23.86h-7.17v-43.16h7.17v6.14c1.42-2.21,3.35-3.91,5.79-5.12,2.44-1.21,5.13-1.81,8.07-1.81,5.25,0,9.5,1.59,12.76,4.76Z"/>
      <path class="cls-4" d="M327.71,429.67c-.95-.95-1.42-2.1-1.42-3.47s.47-2.52,1.42-3.47c.94-.95,2.1-1.42,3.47-1.42s2.43.47,3.35,1.42c.92.94,1.38,2.1,1.38,3.47s-.46,2.52-1.38,3.47c-.92.94-2.04,1.42-3.35,1.42s-2.52-.47-3.47-1.42ZM334.64,438.1v43.16h-7.17v-43.16h7.17Z"/>
      <path class="cls-4" d="M354.88,480.27c-2.63-1.13-4.7-2.7-6.22-4.73-1.52-2.02-2.36-4.34-2.52-6.97h7.4c.21,2.15,1.22,3.91,3.03,5.28,1.81,1.37,4.19,2.05,7.13,2.05,2.73,0,4.88-.6,6.46-1.81,1.58-1.21,2.36-2.73,2.36-4.57s-.84-3.29-2.52-4.21c-1.68-.92-4.28-1.82-7.8-2.72-3.2-.84-5.82-1.69-7.84-2.56-2.02-.87-3.75-2.15-5.2-3.86-1.44-1.71-2.17-3.95-2.17-6.73,0-2.21.66-4.23,1.97-6.06,1.31-1.84,3.18-3.29,5.59-4.37,2.41-1.08,5.17-1.61,8.27-1.61,4.78,0,8.64,1.21,11.58,3.62,2.94,2.42,4.52,5.72,4.73,9.92h-7.17c-.16-2.26-1.06-4.07-2.72-5.43s-3.87-2.05-6.66-2.05c-2.57,0-4.62.55-6.14,1.65-1.52,1.1-2.28,2.55-2.28,4.33,0,1.42.46,2.59,1.38,3.5.92.92,2.07,1.65,3.47,2.21,1.39.55,3.32,1.17,5.79,1.85,3.1.84,5.62,1.67,7.56,2.48,1.94.81,3.61,2.04,5,3.66,1.39,1.63,2.11,3.75,2.17,6.38,0,2.36-.66,4.49-1.97,6.38s-3.16,3.37-5.55,4.45c-2.39,1.08-5.13,1.61-8.23,1.61-3.31,0-6.28-.56-8.9-1.69Z"/>
      <path class="cls-4" d="M452.15,439.4c2.63,1.39,4.7,3.48,6.22,6.26,1.52,2.78,2.28,6.17,2.28,10.16v25.44h-7.09v-24.41c0-4.3-1.06-7.6-3.19-9.88-2.13-2.28-5-3.43-8.62-3.43s-6.69,1.2-8.9,3.58c-2.2,2.39-3.31,5.84-3.31,10.36v23.78h-7.09v-24.41c0-4.3-1.06-7.6-3.19-9.88s-5-3.43-8.62-3.43-6.69,1.2-8.9,3.58c-2.21,2.39-3.31,5.84-3.31,10.36v23.78h-7.17v-43.16h7.17v6.22c1.42-2.26,3.32-3.99,5.71-5.2,2.39-1.21,5.03-1.81,7.92-1.81,3.62,0,6.82.81,9.61,2.44,2.78,1.63,4.86,4.02,6.22,7.17,1.21-3.04,3.2-5.41,5.99-7.09,2.78-1.68,5.88-2.52,9.29-2.52s6.35.7,8.98,2.09Z"/>
      <path class="cls-4" d="M513.18,462.35h-34.5c.26,4.25,1.72,7.57,4.37,9.96,2.65,2.39,5.87,3.58,9.65,3.58,3.1,0,5.68-.72,7.76-2.17,2.07-1.44,3.53-3.37,4.37-5.79h7.72c-1.15,4.15-3.47,7.52-6.93,10.12-3.47,2.6-7.77,3.9-12.92,3.9-4.1,0-7.76-.92-10.99-2.76-3.23-1.84-5.76-4.45-7.6-7.84-1.84-3.39-2.76-7.31-2.76-11.77s.89-8.37,2.68-11.73c1.78-3.36,4.29-5.95,7.52-7.76,3.23-1.81,6.94-2.72,11.14-2.72s7.72.89,10.87,2.68c3.15,1.79,5.58,4.24,7.28,7.36,1.71,3.12,2.56,6.66,2.56,10.59,0,1.37-.08,2.81-.24,4.33ZM504.21,449.48c-1.21-1.97-2.85-3.47-4.92-4.49-2.08-1.02-4.37-1.54-6.89-1.54-3.62,0-6.71,1.15-9.25,3.47-2.55,2.31-4,5.51-4.37,9.61h27.25c0-2.73-.6-5.08-1.81-7.05Z"/>
      <path class="cls-4" d="M547.21,447.9c1.78-3.33,4.24-5.92,7.36-7.76,3.12-1.84,6.63-2.76,10.51-2.76,3.36,0,6.48.78,9.37,2.32,2.89,1.55,5.09,3.58,6.62,6.1v-22.84h7.25v58.28h-7.25v-8.11c-1.42,2.57-3.52,4.69-6.3,6.34-2.78,1.65-6.04,2.48-9.77,2.48s-7.31-.94-10.44-2.83c-3.12-1.89-5.58-4.54-7.36-7.95-1.79-3.41-2.68-7.3-2.68-11.66s.89-8.28,2.68-11.62ZM579.1,451.09c-1.31-2.41-3.09-4.27-5.32-5.55-2.23-1.29-4.69-1.93-7.36-1.93s-5.12.63-7.32,1.89c-2.21,1.26-3.97,3.1-5.28,5.51-1.31,2.41-1.97,5.25-1.97,8.51s.66,6.18,1.97,8.62c1.31,2.44,3.07,4.31,5.28,5.59,2.2,1.29,4.65,1.93,7.32,1.93s5.13-.64,7.36-1.93c2.23-1.29,4-3.15,5.32-5.59,1.31-2.44,1.97-5.29,1.97-8.55s-.66-6.09-1.97-8.51Z"/>
      <path class="cls-4" d="M641.24,462.35h-34.5c.26,4.25,1.72,7.57,4.37,9.96,2.65,2.39,5.87,3.58,9.65,3.58,3.1,0,5.68-.72,7.76-2.17,2.07-1.44,3.53-3.37,4.37-5.79h7.72c-1.15,4.15-3.47,7.52-6.93,10.12-3.47,2.6-7.77,3.9-12.92,3.9-4.1,0-7.76-.92-10.99-2.76-3.23-1.84-5.76-4.45-7.6-7.84-1.84-3.39-2.76-7.31-2.76-11.77s.89-8.37,2.68-11.73c1.78-3.36,4.29-5.95,7.52-7.76,3.23-1.81,6.94-2.72,11.14-2.72s7.72.89,10.87,2.68c3.15,1.79,5.58,4.24,7.28,7.36,1.71,3.12,2.56,6.66,2.56,10.59,0,1.37-.08,2.81-.24,4.33ZM632.26,449.48c-1.21-1.97-2.85-3.47-4.92-4.49-2.08-1.02-4.37-1.54-6.89-1.54-3.62,0-6.71,1.15-9.25,3.47-2.55,2.31-4,5.51-4.37,9.61h27.25c0-2.73-.6-5.08-1.81-7.05Z"/>
    </g>
    <g class="cls-3">
      <path class="cls-4" d="M692.83,444h-9.06v37.25h-7.17v-37.25h-5.59v-5.91h5.59v-3.07c0-4.83,1.25-8.36,3.74-10.59,2.49-2.23,6.5-3.35,12.01-3.35v5.99c-3.15,0-5.37.62-6.66,1.85-1.29,1.23-1.93,3.27-1.93,6.1v3.07h9.06v5.91Z"/>
      <path class="cls-4" d="M710.67,479.21c-3.28-1.84-5.86-4.45-7.72-7.84-1.86-3.39-2.8-7.31-2.8-11.77s.96-8.31,2.87-11.7c1.92-3.39,4.53-5.99,7.84-7.8,3.31-1.81,7.01-2.72,11.1-2.72s7.8.91,11.1,2.72c3.31,1.81,5.92,4.4,7.84,7.76,1.92,3.36,2.87,7.27,2.87,11.73s-.98,8.39-2.95,11.77c-1.97,3.39-4.63,6-7.99,7.84-3.36,1.84-7.09,2.76-11.18,2.76s-7.71-.92-10.99-2.76ZM728.9,473.85c2.26-1.21,4.08-3.02,5.47-5.43,1.39-2.41,2.09-5.36,2.09-8.82s-.68-6.41-2.05-8.82c-1.37-2.41-3.15-4.21-5.36-5.39-2.2-1.18-4.59-1.77-7.17-1.77s-5.03.59-7.21,1.77-3.93,2.98-5.24,5.39c-1.31,2.42-1.97,5.36-1.97,8.82s.64,6.49,1.93,8.9c1.29,2.42,3,4.21,5.16,5.39,2.15,1.18,4.52,1.77,7.09,1.77s4.99-.6,7.25-1.81Z"/>
      <path class="cls-4" d="M767.45,439.36c2.34-1.37,5.18-2.05,8.54-2.05v7.4h-1.89c-8.03,0-12.05,4.36-12.05,13.07v23.47h-7.17v-43.16h7.17v7.01c1.26-2.47,3.06-4.38,5.4-5.75Z"/>
      <path class="cls-4" d="M846.8,439.4c2.63,1.39,4.7,3.48,6.22,6.26,1.52,2.78,2.28,6.17,2.28,10.16v25.44h-7.09v-24.41c0-4.3-1.06-7.6-3.19-9.88-2.13-2.28-5-3.43-8.62-3.43s-6.69,1.2-8.9,3.58c-2.2,2.39-3.31,5.84-3.31,10.36v23.78h-7.09v-24.41c0-4.3-1.06-7.6-3.19-9.88s-5-3.43-8.62-3.43-6.69,1.2-8.9,3.58c-2.21,2.39-3.31,5.84-3.31,10.36v23.78h-7.17v-43.16h7.17v6.22c1.42-2.26,3.32-3.99,5.71-5.2,2.39-1.21,5.03-1.81,7.92-1.81,3.62,0,6.82.81,9.61,2.44,2.78,1.63,4.86,4.02,6.22,7.17,1.21-3.04,3.2-5.41,5.99-7.09,2.78-1.68,5.88-2.52,9.29-2.52s6.35.7,8.98,2.09Z"/>
      <path class="cls-4" d="M868.69,447.9c1.78-3.33,4.24-5.92,7.36-7.76,3.12-1.84,6.6-2.76,10.44-2.76s7.06.81,9.84,2.44c2.78,1.63,4.86,3.68,6.22,6.14v-7.88h7.25v43.16h-7.25v-8.03c-1.42,2.52-3.53,4.61-6.34,6.26-2.81,1.65-6.08,2.48-9.81,2.48s-7.3-.94-10.4-2.83c-3.1-1.89-5.54-4.54-7.32-7.95-1.79-3.41-2.68-7.3-2.68-11.66s.89-8.28,2.68-11.62ZM900.59,451.09c-1.31-2.41-3.09-4.27-5.32-5.55-2.23-1.29-4.69-1.93-7.36-1.93s-5.12.63-7.32,1.89c-2.21,1.26-3.97,3.1-5.28,5.51-1.31,2.41-1.97,5.25-1.97,8.51s.66,6.18,1.97,8.62c1.31,2.44,3.07,4.31,5.28,5.59,2.2,1.29,4.65,1.93,7.32,1.93s5.13-.64,7.36-1.93c2.23-1.29,4-3.15,5.32-5.59,1.31-2.44,1.97-5.29,1.97-8.55s-.66-6.09-1.97-8.51Z"/>
      <path class="cls-4" d="M932.33,444v25.44c0,2.1.45,3.58,1.34,4.45.89.87,2.44,1.3,4.65,1.3h5.28v6.06h-6.46c-3.99,0-6.98-.92-8.98-2.76-2-1.84-2.99-4.86-2.99-9.06v-25.44h-5.59v-5.91h5.59v-10.87h7.17v10.87h11.26v5.91h-11.26Z"/>
      <path class="cls-4" d="M954.14,429.67c-.95-.95-1.42-2.1-1.42-3.47s.47-2.52,1.42-3.47c.94-.95,2.1-1.42,3.47-1.42s2.43.47,3.35,1.42c.92.94,1.38,2.1,1.38,3.47s-.46,2.52-1.38,3.47c-.92.94-2.04,1.42-3.35,1.42s-2.52-.47-3.47-1.42ZM961.07,438.1v43.16h-7.17v-43.16h7.17Z"/>
      <path class="cls-4" d="M982.77,479.21c-3.28-1.84-5.86-4.45-7.72-7.84-1.86-3.39-2.8-7.31-2.8-11.77s.96-8.31,2.87-11.7c1.92-3.39,4.53-5.99,7.84-7.8,3.31-1.81,7.01-2.72,11.1-2.72s7.8.91,11.1,2.72c3.31,1.81,5.92,4.4,7.84,7.76,1.92,3.36,2.87,7.27,2.87,11.73s-.98,8.39-2.95,11.77c-1.97,3.39-4.63,6-7.99,7.84-3.36,1.84-7.09,2.76-11.18,2.76s-7.71-.92-10.99-2.76ZM1001,473.85c2.26-1.21,4.08-3.02,5.47-5.43,1.39-2.41,2.09-5.36,2.09-8.82s-.68-6.41-2.05-8.82c-1.37-2.41-3.15-4.21-5.36-5.39-2.2-1.18-4.59-1.77-7.17-1.77s-5.03.59-7.21,1.77-3.93,2.98-5.24,5.39c-1.31,2.42-1.97,5.36-1.97,8.82s.64,6.49,1.93,8.9c1.29,2.42,3,4.21,5.16,5.39,2.15,1.18,4.52,1.77,7.09,1.77s4.99-.6,7.25-1.81Z"/>
      <path class="cls-4" d="M1060.78,442.07c3.26,3.18,4.88,7.76,4.88,13.74v25.44h-7.09v-24.41c0-4.3-1.08-7.6-3.23-9.88-2.15-2.28-5.09-3.43-8.82-3.43s-6.79,1.18-9.02,3.54c-2.23,2.36-3.35,5.8-3.35,10.32v23.86h-7.17v-43.16h7.17v6.14c1.42-2.21,3.35-3.91,5.79-5.12,2.44-1.21,5.13-1.81,8.07-1.81,5.25,0,9.5,1.59,12.76,4.76Z"/>
    </g>
  </g>
  <g id="Groupe_22">
    <g class="cls-5">
      <g id="Groupe_1">
        <path id="Tracé_1" class="cls-4" d="M93.57,349.06c-6.16,0-10.57-.85-13.22-2.55-2.59-1.6-4.43-4.18-5.1-7.16-.76-3.19-1.13-6.45-1.12-9.73v-183.53c-.02-3.23.41-6.44,1.27-9.55.85-2.98,2.78-5.53,5.42-7.16,4.02-2.09,8.54-3.03,13.06-2.71h67.23c9.4-.03,18.72,1.59,27.56,4.77,8.88,3.23,17.05,8.15,24.05,14.5,7.31,6.61,13.12,14.7,17.05,23.74,4.32,10.28,6.44,21.35,6.21,32.5.23,11.15-1.88,22.22-6.21,32.5-3.87,8.98-9.69,16.98-17.05,23.42-7.11,6.2-15.33,11.01-24.21,14.18-8.89,3.18-18.27,4.79-27.72,4.77h-47.79v52.89c.02,3.22-.35,6.43-1.12,9.56-.7,2.92-2.54,5.44-5.1,7.01-2.66,1.7-7.07,2.55-13.22,2.55M113,238.19h48.11c6.28.07,12.49-1.29,18.16-3.99,5.51-2.64,10.11-6.85,13.22-12.1,3.48-6.16,5.19-13.16,4.94-20.23.17-6.7-1.36-13.33-4.45-19.28-2.92-5.36-7.35-9.73-12.74-12.58-6.01-3.09-12.69-4.62-19.44-4.46h-47.8v72.64Z"/>
        <path id="Tracé_2" class="cls-4" d="M336.35,351.61c-10.18-.04-20.25-2.1-29.63-6.05-9.68-3.98-18.58-9.64-26.29-16.73-16.16-14.86-25.25-35.88-25.01-57.83-.16-21.51,8.33-42.18,23.58-57.35,7.36-7.38,16.06-13.28,25.65-17.36,9.82-4.17,20.39-6.28,31.06-6.21,14.31-.2,28.41,3.49,40.78,10.68,11.97,6.98,21.95,16.91,28.99,28.83,7.31,12.45,11.06,26.67,10.84,41.1.15,11.39-2.13,22.69-6.68,33.14-4.25,9.69-10.43,18.42-18.16,25.65-7.51,7.03-16.26,12.59-25.81,16.41-9.31,3.77-19.26,5.72-29.31,5.73M335.72,313.7c7.08-.02,14.04-1.82,20.23-5.25,14.02-7.61,22.57-22.45,22.14-38.39.15-7.67-1.72-15.25-5.42-21.98-3.52-6.28-8.78-11.43-15.13-14.82-6.82-3.58-14.44-5.39-22.14-5.25-14.9-.09-28.7,7.81-36.16,20.71-3.78,6.59-5.7,14.07-5.58,21.67-.22,8.12,1.88,16.13,6.05,23.1,7.72,12.49,21.32,20.13,36,20.23"/>
        <path id="Tracé_3" class="cls-4" d="M508.72,349.06c-9.47.02-18.82-2.05-27.4-6.05-8.71-4.03-16.55-9.71-23.1-16.73-6.81-7.31-12.17-15.85-15.77-25.17-3.87-9.9-5.81-20.44-5.73-31.07-.09-20.39,7.6-40.04,21.51-54.96,6.55-7.01,14.39-12.69,23.1-16.73,8.58-4.01,17.93-6.08,27.4-6.06,9.59-.18,19.08,1.9,27.72,6.06,8,3.98,15.02,9.7,20.55,16.73,5.78,7.43,10.15,15.85,12.89,24.85,3.03,9.85,4.54,20.12,4.46,30.43.28,10.3-1.12,20.58-4.14,30.42-2.76,9.05-7.14,17.52-12.9,25.01-5.51,7.12-12.53,12.94-20.55,17.05-8.71,4.28-18.33,6.41-28.04,6.21M514.13,311.78c6.89.09,13.67-1.73,19.59-5.25,5.86-3.52,10.7-8.52,14.02-14.5,3.57-6.43,5.38-13.68,5.25-21.03.15-7.43-1.6-14.78-5.1-21.35-3.27-6.01-8.11-11.02-14.01-14.49-6.09-3.54-13.03-5.35-20.07-5.25-6.94-.08-13.77,1.74-19.75,5.25-5.93,3.49-10.82,8.49-14.18,14.5-3.59,6.53-5.41,13.89-5.25,21.35-.13,7.35,1.68,14.6,5.25,21.03,3.38,6.04,8.34,11.05,14.34,14.5,6.05,3.5,12.93,5.32,19.91,5.25M573.08,349.06c-4.61.33-9.22-.72-13.22-3.03-3.05-2.35-4.96-5.88-5.25-9.72v-195.94c-.03-3.31.24-6.62.8-9.88.5-2.92,2.17-5.5,4.62-7.16,2.55-1.8,6.79-2.71,12.74-2.71,5.95,0,10.25.85,12.9,2.55,2.56,1.57,4.39,4.09,5.1,7.01.77,3.23,1.15,6.55,1.12,9.88v189.57c.03,3.33-.34,6.64-1.12,9.88-.68,2.89-2.45,5.4-4.94,7.01-2.55,1.7-6.79,2.55-12.74,2.55"/>
        <path id="Tracé_4" class="cls-4" d="M645.08,349.38c-5.95,0-10.25-1.32-12.9-3.97-2.73-2.79-4.46-6.39-4.94-10.26-.67-4.72-.99-9.48-.95-14.24v-156.73c-.04-4.76.28-9.53.95-14.24.45-3.84,2.26-7.4,5.1-10.04,2.76-2.49,7.11-3.74,13.06-3.74s10.25,1.24,12.9,3.74c2.78,2.75,4.53,6.37,4.94,10.26.68,4.95.99,9.95.95,14.94v156.25c.04,4.76-.28,9.52-.95,14.24-.44,3.82-2.19,7.36-4.94,10.04-2.66,2.49-7.07,3.73-13.22,3.74"/>
        <path id="Tracé_5" class="cls-4" d="M763.91,349.06c-9.29.1-18.5-1.69-27.08-5.25-8.21-3.45-15.6-8.61-21.67-15.13-6.31-6.82-11.18-14.84-14.34-23.58-3.5-9.7-5.22-19.95-5.1-30.27v-101.96c-.04-3.27.33-6.54,1.11-9.72.76-2.9,2.65-5.36,5.25-6.85,3.95-1.96,8.35-2.84,12.74-2.55,6.16,0,10.56.85,13.22,2.55,2.55,1.55,4.34,4.09,4.94,7.01.66,3.25.98,6.56.95,9.88v101.63c-.18,6.8,1.18,13.55,3.98,19.75,2.51,5.36,6.56,9.85,11.63,12.9,5.72,3.24,12.23,4.84,18.8,4.62,6.77.21,13.48-1.38,19.43-4.62,5.3-3.08,9.62-7.61,12.42-13.06,3.08-6.07,4.61-12.8,4.46-19.6v-74.42c-.03-3.33.34-6.65,1.12-9.88.68-2.89,2.52-5.37,5.1-6.85,2.65-1.59,7.06-2.39,13.22-2.39s10.19.85,12.75,2.55c2.49,1.62,4.25,4.13,4.94,7.01.77,3.23,1.15,6.55,1.12,9.88v130.17c.02,3.01-.35,6.01-1.12,8.92-.78,2.8-2.6,5.19-5.1,6.68-2.66,1.7-6.96,2.55-12.9,2.55-3.46.12-6.91-.36-10.2-1.43-2.19-.7-4.13-2.03-5.58-3.82-1.11-1.45-1.87-3.14-2.23-4.94-.32-1.68-.48-3.39-.48-5.1l2.86-8.28c-1.49,1.7-3.51,3.88-6.05,6.53-2.88,2.94-6.03,5.61-9.4,7.96-3.92,2.76-8.21,4.96-12.74,6.53-5.18,1.76-10.62,2.63-16.09,2.55"/>
        <path id="Tracé_6" class="cls-4" d="M892.95,349.07c-5.95,0-10.25-.85-12.9-2.55-2.55-1.54-4.34-4.08-4.94-7.01-.65-3.14-.97-6.35-.95-9.56v-118.85c-.05-3.22.33-6.43,1.12-9.56.78-2.8,2.6-5.19,5.1-6.68,2.65-1.7,7.06-2.55,13.22-2.55,6.16,0,10.68,1.27,13.54,3.82,2.86,2.55,4.3,6.69,4.3,12.43l-2.86,8.59c1.4-2.81,3.22-5.39,5.42-7.64,2.87-3.05,6.02-5.82,9.4-8.29,3.85-2.83,8.09-5.08,12.59-6.68,4.7-1.7,9.66-2.57,14.66-2.55,6.59-.08,13.13,1.11,19.28,3.5,5.83,2.33,11.13,5.8,15.61,10.2,4.79,4.77,8.83,10.25,11.95,16.25,3.53-5.43,7.59-10.49,12.11-15.13,4.47-4.57,9.77-8.25,15.61-10.83,6.33-2.73,13.18-4.09,20.07-3.98,11.08-.37,21.99,2.87,31.07,9.24,8.78,6.7,15.37,15.84,18.96,26.29,4.52,13.05,6.68,26.81,6.37,40.62v61.81c.04,3.26-.28,6.52-.95,9.72-.63,2.87-2.42,5.34-4.94,6.85-2.66,1.7-7.07,2.55-13.22,2.55-5.95,0-10.25-.9-12.9-2.71-2.51-1.59-4.28-4.11-4.94-7.01-.67-3.2-.99-6.45-.95-9.72v-61.81c.14-6.91-.83-13.79-2.86-20.39-1.52-5.15-4.51-9.74-8.59-13.22-4.2-3.2-9.38-4.84-14.66-4.62-5.69-.13-11.28,1.42-16.09,4.46-4.77,3.21-8.48,7.75-10.68,13.06-2.72,6.67-4.03,13.83-3.82,21.03v62.13c.03,3.41-.51,6.8-1.59,10.04-1.05,3.07-3.29,5.59-6.21,7.01-4.17,1.76-8.74,2.36-13.22,1.75-4.21.17-8.38-.94-11.95-3.18-2.34-1.74-3.93-4.3-4.46-7.16-.54-2.99-.81-6.03-.8-9.07v-61.81c.13-6.89-.78-13.77-2.71-20.39-1.43-5.15-4.37-9.76-8.44-13.22-4.2-3.2-9.38-4.84-14.66-4.62-5.96-.19-11.82,1.54-16.73,4.94-4.7,3.47-8.3,8.23-10.35,13.7-2.41,6.25-3.6,12.9-3.51,19.6v62.45c.02,3.22-.35,6.42-1.11,9.55-.68,2.89-2.53,5.37-5.1,6.85-2.66,1.59-7.07,2.39-13.22,2.39"/>
        <path id="Tracé_7" class="cls-4" d="M645.08,113.53c-6.37,0-10.99-.95-13.86-2.86-2.74-1.73-4.69-4.48-5.42-7.64-.77-3.45-1.15-6.97-1.11-10.5-.04-3.49.39-6.98,1.27-10.36.84-3.07,2.84-5.7,5.57-7.33,2.87-1.82,7.49-2.74,13.87-2.74s10.94.95,13.7,2.86c2.68,1.8,4.61,4.51,5.42,7.64.88,3.43,1.31,6.96,1.27,10.5.04,3.49-.39,6.98-1.27,10.36-.82,3.04-2.75,5.65-5.42,7.33-2.76,1.81-7.44,2.71-14.02,2.71"/>
      </g>
    </g>
  </g>
</svg>